mtllib materials.mtl
v 0.3326453 -0.1824999 0.1525001
v 0.3326453 -0.1824999 0.2124999
v 0.3326453 0.6974999 0.2124998
v 0.3326453 0.6974999 0.1525
v -1.487354 -0.1824999 0.1524999
v -1.487354 0.6974998 0.1524998
v -1.487354 0.6975 0.2124994
v -1.487354 -0.1824998 0.2124995
v 0.01235443 -0.5424999 0.2124995
v 0.01235443 -0.1824999 0.2125
v 0.01235449 -0.1824999 0.1525
v 0.01235449 -0.5424998 0.1524994
v -0.1876456 -0.1824999 0.2124995
v -0.1876456 -0.1824998 0.1524995
vn 1 6.355485E-08 -3.21862E-07
vn -1 1.027454E-08 -3.155096E-06
vn -1.6375E-08 -1 5.396098E-07
vn 3.156082E-13 1 -1.805069E-06
vn 1.427508E-07 -6.773257E-08 -1
vn -2.019237E-07 6.773257E-08 1
vn 1 -3.695775E-09 1.015006E-06
vn -2.387569E-06 -1.333343E-06 1
vn 2.368942E-06 1.485563E-06 -1
vn -0.8741572 -0.485643 -1.440999E-06
vn 4.267423E-07 1 1.498809E-06
vt 0.1027386 0.04476587
vt 0.107621 0.04127846
vt 0.1587699 0.112887
vt 0.1538875 0.1163744
vt -0.102739 0.04476532
vt -0.1538882 0.1163736
vt -0.1587706 0.1128862
vt -0.1076213 0.0412779
vt 0.09169886 0.08555247
vt 0.03048567 -0.08584451
vt 0.03613608 -0.08786254
vt 0.09734928 0.08353446
vt -0.09169906 0.08555243
vt -0.09734949 0.08353443
vt -0.03613639 -0.0878626
vt -0.03048597 -0.08584459
vt -0.03616891 0.1426446
vt -0.1148785 0.1819994
vt -0.1962713 0.01921372
vt -0.1175618 -0.02014106
vt 0.03616891 0.1426446
vt 0.1175618 -0.02014107
vt 0.1962714 0.01921373
vt 0.1148785 0.1819994
vt 0.08669634 0.011984
vt 0.107621 0.04127834
vt 0.1027386 0.04476578
vt 0.08181395 0.01547145
vt 0.0182934 0.09789743
vt 0.05943706 0.09610857
vt 0.05049277 0.1139971
vt -0.01829342 0.09789743
vt -0.05049279 0.1139971
vt -0.05943708 0.09610856
vt -0.005328841 -0.06489177
vt -0.006137287 -0.05894648
vt -0.04694427 -0.0644954
vt -0.04613582 -0.07044069
vt -0.0865766 0.05337127
vt -0.07984982 0.03453645
vt -0.07419937 0.03655447
vt -0.08092616 0.0553893
o group316831793
g mesh316831793
usemtl mat21
f 4/4/1 3/3/1 2/2/1 1/1/1
f 8/8/2 7/7/2 6/6/2 5/5/2
f 2/12/3 8/11/3 5/10/3 1/9/3
f 6/16/4 7/15/4 3/14/4 4/13/4
f 5/20/5 6/19/5 4/18/5 1/17/5
f 3/24/6 7/23/6 8/22/6 2/21/6
o group1632295280
g mesh1632295280
usemtl mat21
f 12/28/7 11/27/7 10/26/7 9/25/7
f 10/31/8 13/30/8 9/29/8
f 14/34/9 11/33/9 12/32/9
f 13/38/10 14/37/10 12/36/10 9/35/10
f 11/42/11 14/41/11 13/40/11 10/39/11
